# xmcd CD database file
#
# Track frame offsets:
#	150
#	23997
#	42736
#	66324
#	85465
#	102502
#	118456
#	135692
#	158400
#	178496
#	195733
#	207491
#	227752
#
# Disc length: 3349 seconds
#
# Revision: 1
# Processed by: cddbd v1.5.1PL2 Copyright (c) Steve Scherf et al.
# Submitted via: CDex 1.50Beta7
#
DISCID=ca0d130d
DTITLE=Izzy Gordon - Aos Mestres com Carinho
DYEAR=2006
DGENRE=Jazz
TTITLE0=O negócio é amar
TTITLE1=O que é que eu faço
TTITLE2=Estrada do sol
TTITLE3=tome continha de você
TTITLE4=Olhe o tempo passando 
TTITLE5=Se é por falta de adeus
TTITLE6=castigo
TTITLE7=Não me culpe 
TTITLE8=A noite do meu bem 
TTITLE9=Pela rua 
TTITLE10=Por causa de você
TTITLE11=Noite de paz (dá-me Senhor)
TTITLE12=My funny valentine
EXTD=YEAR: 2006
EXTT0=
EXTT1=
EXTT2=
EXTT3=
EXTT4=
EXTT5=
EXTT6=
EXTT7=
EXTT8=
EXTT9=
EXTT10=
EXTT11=
EXTT12=
PLAYORDER=
